<?xml version="1.0" standalone="no"?>
<!DOCTYPE svg PUBLIC "-//W3C//DTD SVG 20010904//EN"
 "http://www.w3.org/TR/2001/REC-SVG-20010904/DTD/svg10.dtd">
<svg version="1.0" xmlns="http://www.w3.org/2000/svg"
 width="3264.000000pt" height="3264.000000pt" viewBox="0 0 3264.000000 3264.000000"
 preserveAspectRatio="xMidYMid meet">

<g transform="translate(0.000000,3264.000000) scale(0.100000,-0.100000)"
fill="#000000" stroke="none">
<path d="M15985 29823 c-11 -1 -148 -7 -305 -13 -255 -10 -761 -52 -975 -80
-174 -23 -624 -92 -695 -106 -455 -92 -609 -126 -880 -195 -422 -107 -854
-240 -1224 -375 -83 -31 -189 -70 -236 -87 -179 -65 -766 -320 -1014 -441
-142 -69 -259 -126 -261 -126 -2 0 -137 -73 -301 -163 -1934 -1057 -3567
-2569 -4772 -4418 -199 -306 -461 -751 -597 -1014 -48 -93 -114 -220 -146
-282 -100 -190 -325 -694 -451 -1008 -209 -522 -443 -1248 -554 -1718 -20 -84
-54 -225 -75 -314 -21 -89 -47 -210 -58 -270 -11 -59 -38 -208 -61 -330 -22
-123 -52 -307 -66 -410 -13 -104 -31 -237 -39 -298 -34 -247 -74 -801 -86
-1180 -19 -572 9 -1320 66 -1795 9 -74 25 -211 36 -305 27 -238 118 -766 179
-1045 28 -129 60 -274 70 -322 11 -48 35 -147 55 -220 20 -73 57 -207 81 -298
128 -471 385 -1194 583 -1645 49 -110 103 -234 121 -275 73 -167 372 -752 520
-1015 303 -539 677 -1100 1074 -1610 219 -283 572 -700 736 -870 53 -55 152
-158 220 -230 369 -384 887 -847 1362 -1217 1043 -813 2204 -1465 3455 -1942
164 -62 343 -128 398 -145 55 -18 190 -61 299 -97 664 -217 1629 -429 2351
-515 423 -50 555 -61 1050 -90 222 -12 1170 -12 1395 0 468 27 648 41 930 76
69 8 168 20 220 25 135 15 787 125 917 155 59 13 200 45 313 70 113 24 277 65
365 89 88 24 228 62 310 85 207 56 700 217 935 306 406 153 461 175 673 269
119 53 245 107 279 122 34 14 204 97 378 184 588 294 1187 651 1707 1016 271
190 688 507 853 649 52 45 165 142 250 215 399 342 933 878 1311 1315 535 620
1101 1415 1454 2045 51 91 122 218 159 282 74 132 346 673 396 788 18 41 75
172 127 290 135 305 323 803 442 1166 267 821 458 1696 556 2539 71 615 86
890 87 1520 1 526 -7 729 -47 1195 -86 1001 -316 2105 -635 3045 -45 132 -92
272 -105 310 -50 151 -289 733 -400 975 -154 338 -398 814 -553 1080 -69 118
-143 247 -165 285 -87 152 -417 649 -603 907 -1257 1740 -2951 3173 -4869
4118 -360 177 -337 166 -705 323 -449 191 -945 367 -1500 531 -349 103 -1121
276 -1455 325 -396 59 -545 80 -600 85 -692 68 -907 78 -1674 80 -322 0 -595
0 -606 -1z m1395 -133 c283 -19 381 -29 831 -80 144 -17 337 -46 699 -106 173
-29 742 -153 915 -199 94 -25 231 -62 305 -81 74 -19 162 -44 195 -54 551
-173 986 -329 1395 -502 347 -146 325 -136 650 -293 312 -152 478 -240 503
-268 9 -11 96 -59 192 -108 95 -48 199 -104 230 -123 30 -20 57 -36 60 -36 10
0 428 -258 510 -315 50 -34 155 -106 235 -159 80 -54 154 -108 166 -122 11
-14 43 -37 70 -52 127 -68 837 -632 819 -650 -2 -3 -174 80 -382 183 -445 221
-495 245 -511 245 -6 0 -27 9 -47 20 -20 11 -41 20 -48 20 -7 0 -23 6 -37 13
-14 8 -57 21 -95 31 -39 10 -88 23 -110 29 -53 16 -357 16 -410 0 -22 -6 -74
-19 -115 -29 -41 -9 -83 -20 -93 -26 -11 -5 -76 -10 -146 -10 l-127 0 -99 57
c-55 32 -104 61 -110 65 -32 23 -407 227 -597 323 -763 388 -1620 716 -2423
927 -123 33 -657 158 -740 174 -760 145 -1377 213 -2142 237 -970 29 -1966
-52 -2883 -237 -1561 -315 -3028 -917 -4365 -1792 -1283 -839 -2435 -1962
-3326 -3242 -1156 -1659 -1885 -3586 -2119 -5600 -5 -47 -14 -123 -20 -170 -5
-47 -20 -227 -32 -400 -19 -266 -22 -398 -22 -850 0 -650 21 -993 95 -1570 12
-91 21 -174 20 -185 -1 -37 -26 -170 -33 -181 -4 -7 -10 -110 -13 -230 -6
-230 -20 -383 -36 -399 -5 -5 -9 -15 -9 -23 0 -7 -10 -28 -23 -45 -29 -42 -41
-61 -75 -127 -15 -30 -33 -64 -39 -75 -27 -47 -41 -86 -56 -156 -25 -116 -41
-324 -33 -445 15 -249 19 -434 9 -434 -22 0 -215 682 -218 773 -1 37 -8 64
-19 75 -9 11 -36 110 -66 248 -28 126 -57 256 -65 289 -31 130 -128 743 -156
985 -16 140 -34 293 -39 340 -5 47 -20 225 -32 395 -20 273 -23 378 -22 875 1
311 7 637 12 725 21 314 53 663 77 845 14 102 32 239 41 305 13 100 31 207 69
420 3 17 19 104 36 195 45 247 170 768 260 1085 206 722 585 1698 878 2260 38
72 106 202 151 290 46 88 120 223 165 300 45 77 117 201 160 275 135 232 420
664 623 945 1022 1412 2282 2579 3770 3494 241 148 682 397 877 494 525 262
1046 491 1445 632 36 13 126 46 201 73 189 69 711 232 904 282 88 23 225 59
305 80 186 49 718 161 925 195 88 14 227 37 310 51 166 28 694 90 880 104 184
14 600 40 695 44 242 10 961 -4 1250 -24z m-140 -1070 c344 -17 673 -49 935
-90 244 -39 447 -72 485 -80 52 -12 233 -48 300 -61 25 -5 63 -13 85 -18 22
-6 74 -17 115 -26 149 -33 535 -130 615 -156 17 -5 93 -27 170 -50 276 -79
818 -267 1040 -359 11 -5 103 -43 205 -85 102 -42 213 -90 248 -106 35 -16 65
-29 67 -29 15 0 480 -228 680 -333 152 -80 213 -113 343 -188 47 -27 86 -49
88 -49 2 0 90 -52 196 -117 582 -351 1152 -765 1683 -1221 423 -364 922 -864
1276 -1278 56 -65 113 -132 128 -149 103 -117 402 -506 573 -745 245 -343 569
-855 718 -1135 23 -44 46 -84 50 -90 22 -31 340 -655 340 -668 0 -3 22 -51 49
-108 27 -57 61 -133 76 -169 27 -65 32 -76 79 -183 14 -32 26 -60 26 -63 0 -3
7 -20 15 -37 20 -46 69 -172 127 -327 27 -74 53 -144 58 -155 5 -11 19 -49 31
-85 12 -36 39 -117 61 -180 38 -110 75 -224 103 -320 67 -223 134 -464 155
-560 4 -19 18 -73 29 -120 36 -141 88 -373 105 -465 3 -16 13 -66 21 -110 56
-286 92 -519 130 -840 89 -744 109 -1562 56 -2315 -24 -336 -75 -770 -121
-1040 -6 -30 -19 -110 -30 -176 -21 -130 -83 -453 -100 -519 -5 -22 -23 -98
-40 -170 -52 -221 -58 -244 -114 -445 -95 -339 -194 -651 -286 -900 -17 -47
-38 -105 -46 -130 -9 -25 -22 -58 -29 -75 -7 -16 -30 -73 -50 -125 -20 -52
-43 -108 -51 -125 -7 -16 -22 -52 -32 -80 -19 -48 -34 -82 -106 -240 -18 -38
-43 -95 -57 -125 -60 -137 -319 -646 -394 -775 -13 -22 -38 -67 -56 -100 -17
-33 -77 -134 -132 -225 -55 -91 -107 -177 -116 -192 -203 -339 -536 -810 -837
-1188 -538 -673 -1200 -1342 -1828 -1847 -39 -32 -87 -71 -107 -88 -124 -105
-552 -420 -794 -584 -239 -161 -584 -376 -790 -491 -22 -12 -74 -41 -115 -65
-340 -191 -920 -470 -1255 -605 -44 -17 -89 -36 -100 -41 -11 -4 -56 -22 -100
-39 -44 -17 -89 -34 -100 -39 -127 -54 -536 -195 -785 -271 -58 -17 -116 -36
-130 -40 -86 -30 -508 -140 -725 -189 -236 -54 -280 -63 -450 -96 -44 -9 -102
-20 -130 -26 -43 -8 -189 -31 -495 -79 -36 -5 -126 -16 -200 -25 -74 -8 -173
-20 -220 -25 -157 -18 -304 -30 -495 -40 -104 -6 -201 -13 -214 -16 -45 -10
-957 -6 -1118 5 -342 24 -452 32 -543 41 -150 14 -279 29 -360 39 -217 29
-310 42 -360 51 -30 5 -109 19 -175 30 -66 11 -156 27 -200 35 -44 9 -102 20
-130 25 -61 11 -254 53 -350 75 -38 9 -88 20 -110 25 -119 26 -529 137 -695
187 -123 37 -561 182 -585 193 -11 5 -67 25 -125 46 -104 36 -237 86 -275 104
-11 5 -103 43 -205 85 -102 42 -213 90 -248 106 -35 16 -65 29 -67 29 -1 0
-65 30 -141 66 -355 168 -628 309 -882 455 -47 27 -86 49 -88 49 -8 0 -417
255 -544 339 -80 53 -149 98 -154 100 -40 17 -457 321 -571 416 -34 27 -79 64
-100 81 -85 68 -320 258 -325 263 -3 3 -25 22 -50 42 -25 20 -57 47 -71 60
-15 13 -37 33 -50 43 -217 176 -842 787 -1074 1050 -5 6 -44 50 -85 96 -41 47
-79 90 -85 96 -52 60 -113 131 -125 148 -8 12 -21 28 -29 36 -8 8 -67 80 -130
160 -64 80 -118 147 -121 150 -3 3 -33 41 -65 85 -33 44 -62 82 -65 85 -4 3
-61 82 -128 175 -67 94 -125 175 -130 180 -4 6 -34 51 -67 100 -33 50 -63 91
-67 93 -5 2 -8 7 -8 12 0 8 -79 131 -90 140 -4 3 -9 12 -13 20 -8 18 -30 53
-37 60 -13 11 -120 191 -120 200 0 6 -3 10 -8 10 -4 0 -16 17 -27 38 -11 20
-41 72 -67 114 -27 43 -48 80 -48 83 0 3 -11 22 -23 43 -13 20 -35 57 -49 82
-13 25 -40 72 -58 105 -18 33 -52 96 -74 140 -23 44 -43 82 -46 85 -3 3 -57
111 -122 240 -119 241 -145 296 -233 495 -14 33 -30 69 -35 80 -39 84 -90 211
-90 222 0 7 -4 13 -10 13 -5 0 -10 6 -10 14 0 7 -10 35 -22 62 -24 56 -121
333 -209 604 -34 102 -65 194 -69 205 -9 22 -45 144 -66 220 -21 79 -61 219
-66 235 -9 26 -31 114 -36 145 -2 17 -8 35 -12 40 -4 6 -10 30 -14 55 -4 25
-11 59 -16 75 -19 64 -27 100 -75 330 -9 44 -20 96 -25 115 -5 19 -14 67 -21
105 -6 39 -16 93 -21 120 -4 28 -15 93 -24 145 -8 52 -19 118 -24 145 -20 116
-43 287 -65 480 -20 181 -23 212 -35 360 -5 72 -12 153 -14 180 -15 148 -31
586 -31 835 0 383 32 1054 55 1158 6 23 10 64 10 90 0 26 5 79 11 117 5 39 14
108 19 155 12 99 35 267 50 360 6 36 17 106 25 155 24 153 75 414 104 540 5
22 17 74 26 115 9 41 20 91 24 110 5 19 14 60 21 90 7 30 16 64 20 75 5 11 16
54 25 95 9 41 20 84 25 95 5 11 13 40 19 65 5 25 14 61 20 80 5 19 15 55 21
80 7 25 15 54 20 65 4 11 16 47 25 80 10 33 21 69 25 80 4 11 15 47 25 80 9
33 20 67 25 75 4 9 11 31 15 50 4 19 10 40 14 45 4 6 16 37 26 70 10 33 21 69
26 80 4 11 15 43 24 70 10 28 24 64 31 82 8 17 14 36 14 42 0 6 4 19 9 29 5 9
28 67 51 127 23 61 45 119 49 130 5 11 16 40 26 65 23 60 29 75 59 143 14 32
26 60 26 63 0 3 10 26 21 52 12 26 33 72 46 102 13 30 33 73 43 95 10 22 33
72 50 110 18 39 61 129 96 201 35 72 64 136 64 142 0 5 3 12 8 14 4 2 25 39
48 83 43 86 139 268 171 325 11 19 35 62 53 95 18 33 44 77 57 97 12 21 23 39
23 42 0 2 29 51 65 110 36 58 65 110 65 115 0 5 4 11 9 13 4 2 19 22 32 45 48
84 173 278 181 281 4 2 8 7 8 12 0 4 32 54 71 111 39 57 87 129 107 159 20 30
45 64 55 74 9 11 17 23 17 27 0 4 6 14 13 21 7 7 28 35 47 63 19 27 40 55 45
61 6 6 44 58 87 115 65 88 219 289 261 339 6 8 32 40 57 70 25 30 47 57 50 60
3 3 28 32 55 65 28 33 55 65 60 71 17 19 68 77 109 124 282 325 777 821 1082
1085 96 83 135 118 154 135 9 8 37 32 63 53 25 21 52 43 59 50 7 7 47 39 88
72 41 33 77 62 80 65 3 3 25 21 50 40 25 19 51 40 57 46 7 7 84 65 170 130 87
65 164 124 171 131 7 7 16 13 20 13 4 0 23 14 42 30 19 16 38 30 41 30 3 0 17
9 30 20 29 24 40 32 61 45 32 19 313 210 318 215 3 3 48 32 100 65 52 33 97
62 100 65 3 3 22 14 43 25 20 11 37 23 37 27 0 5 5 8 10 8 6 0 58 29 115 65
58 36 108 65 110 65 3 0 22 11 43 23 20 13 57 35 82 49 25 14 88 49 140 79 52
29 122 68 155 86 73 39 606 304 655 326 19 8 67 30 105 47 155 70 204 92 310
135 50 20 104 42 120 49 17 7 46 19 65 26 19 7 39 17 45 22 5 4 15 8 23 8 13
0 66 21 104 41 10 5 23 9 29 9 6 0 25 6 42 14 18 7 48 19 67 26 19 7 49 18 65
25 17 7 57 20 90 30 33 10 65 21 70 25 6 3 57 21 115 39 58 19 114 37 125 42
11 4 45 15 75 24 30 9 63 20 72 26 10 5 24 9 32 9 17 0 115 29 138 41 10 5 24
9 33 9 8 0 34 6 57 14 24 7 72 21 108 31 36 9 74 21 85 25 11 4 61 17 110 30
50 12 117 28 150 36 33 9 78 19 100 23 85 18 151 34 170 41 11 4 49 13 85 20
36 6 83 16 105 20 100 22 417 80 520 96 17 3 71 11 120 19 50 8 106 17 125 20
80 12 311 41 520 65 403 46 1211 60 1780 30z"/>
<path d="M19574 26641 c-150 -51 -229 -102 -399 -259 -99 -91 -157 -128 -261
-168 -319 -119 -569 -260 -740 -419 -337 -312 -457 -446 -622 -692 -34 -50
-62 -93 -62 -96 0 -2 -22 -42 -49 -89 -130 -227 -278 -571 -339 -793 -70 -250
-132 -688 -132 -927 0 -64 14 -98 41 -98 5 0 9 -10 9 -23 0 -29 18 -47 46 -47
27 0 38 13 59 70 23 62 46 121 56 145 4 11 27 67 50 125 23 58 50 116 59 130
9 14 40 72 68 130 70 143 130 251 209 378 58 92 186 277 203 292 3 3 21 25 40
50 138 180 367 421 505 529 44 35 90 72 103 82 12 10 26 19 31 19 5 0 11 3 13
8 4 10 106 79 228 153 189 115 371 196 520 230 78 18 332 48 417 48 90 1 294
-22 358 -40 105 -30 142 -42 172 -55 17 -8 35 -14 40 -14 5 0 33 -11 61 -25
29 -14 54 -25 56 -25 16 0 290 -169 306 -189 3 -3 27 -24 55 -46 101 -81 283
-274 367 -390 4 -5 18 -23 30 -40 13 -16 39 -52 58 -80 19 -27 38 -51 42 -53
4 -2 8 -7 8 -12 0 -4 25 -50 55 -101 30 -51 55 -99 55 -106 0 -7 5 -13 10 -13
6 0 10 -7 10 -15 0 -8 6 -29 14 -47 17 -40 18 -41 71 -196 50 -143 63 -162
115 -162 74 0 118 68 140 215 11 67 10 109 -4 255 -9 96 -22 202 -28 235 -60
340 -168 681 -286 905 -43 80 -132 215 -169 255 -81 87 -194 172 -402 301 -79
49 -146 96 -148 104 -24 71 -111 229 -162 293 -108 136 -211 195 -458 262
-108 30 -141 35 -232 35 -89 -1 -119 -5 -187 -29z m312 -147 c91 -21 251 -72
294 -94 87 -44 186 -164 240 -290 66 -155 66 -155 153 -212 45 -30 111 -72
147 -93 204 -122 336 -242 413 -372 128 -219 259 -602 311 -908 17 -102 31
-242 24 -235 -3 3 -22 37 -43 75 -91 168 -263 408 -414 574 -274 303 -644 528
-999 606 -220 48 -546 48 -792 -1 -214 -42 -462 -155 -731 -332 -203 -134
-331 -237 -478 -383 -373 -373 -666 -809 -847 -1261 -21 -52 -39 -64 -30 -20
3 15 17 88 31 162 75 388 151 610 342 990 139 278 262 459 450 661 110 119
295 295 393 374 136 110 343 221 570 305 175 65 241 103 344 199 161 152 233
201 364 247 80 28 162 31 258 8z"/>
<path d="M12990 26383 c-211 -28 -352 -114 -616 -378 -199 -198 -346 -370
-608 -710 -372 -482 -577 -951 -580 -1320 -1 -176 27 -246 123 -306 33 -21 57
-29 90 -29 69 0 159 31 199 68 7 6 17 12 20 12 13 0 110 99 155 158 72 93 152
227 224 372 21 41 40 77 43 80 3 3 12 19 20 35 8 17 45 85 82 152 37 68 68
127 68 133 0 5 3 10 8 10 4 0 16 18 26 40 11 22 23 40 28 40 4 0 8 5 8 10 0
21 120 176 220 284 212 229 344 310 635 395 36 10 110 21 261 38 52 6 333 -22
369 -36 11 -5 47 -16 80 -25 69 -20 87 -28 251 -107 126 -61 168 -70 221 -47
96 43 114 147 48 285 -33 68 -55 95 -169 208 -215 212 -645 512 -816 569 -147
49 -318 79 -390 69z m178 -184 c13 -5 40 -9 61 -9 87 0 243 -76 429 -209 353
-252 581 -475 599 -587 5 -30 3 -34 -15 -34 -11 0 -24 5 -27 10 -12 19 -202
140 -261 166 -111 49 -183 67 -346 89 -142 19 -194 19 -337 0 -178 -24 -302
-62 -468 -143 -213 -104 -427 -302 -625 -577 -85 -119 -152 -235 -320 -552
-26 -51 -62 -116 -78 -143 -17 -28 -30 -53 -30 -55 0 -2 -26 -43 -59 -92 -133
-202 -296 -306 -327 -211 -4 13 -7 76 -6 140 1 183 35 321 137 558 105 245
210 415 439 708 268 345 486 588 681 762 109 97 252 180 335 193 36 6 191 -4
218 -14z"/>
<path d="M19325 25060 c-102 -16 -223 -44 -260 -60 -11 -5 -31 -12 -45 -16
-62 -17 -340 -154 -340 -166 0 -5 -4 -8 -10 -8 -20 0 -178 -121 -285 -217
-355 -321 -603 -652 -840 -1118 -339 -668 -535 -1378 -610 -2210 -21 -228 -21
-762 -1 -985 29 -310 97 -693 157 -885 107 -343 162 -491 242 -650 22 -44 45
-90 51 -102 6 -13 14 -23 19 -23 4 0 7 -6 7 -13 0 -16 112 -186 186 -281 106
-137 302 -321 430 -404 10 -6 26 -15 34 -19 8 -4 17 -9 20 -13 8 -10 210 -110
223 -110 7 0 23 -6 37 -13 14 -7 61 -21 105 -31 44 -10 94 -21 110 -26 17 -5
80 -11 140 -14 165 -10 397 20 510 64 11 4 43 16 70 25 28 9 64 23 82 31 17 8
36 14 41 14 6 0 12 3 14 8 2 4 30 20 63 36 57 28 225 127 249 147 6 5 29 23
51 40 172 132 357 309 475 458 19 24 40 49 45 55 45 48 281 388 302 436 3 8
14 26 23 40 37 53 198 365 245 475 9 22 23 54 30 70 24 55 42 99 70 175 15 41
35 93 45 115 9 22 31 87 49 145 18 58 36 112 41 120 4 9 11 31 14 50 4 19 11
44 15 55 18 41 41 128 41 151 0 12 4 25 9 28 5 3 11 20 14 38 2 18 12 65 21
103 15 62 24 107 66 310 9 46 18 103 40 260 5 33 14 114 20 180 6 66 15 152
20 190 25 188 20 783 -9 1000 -67 508 -110 712 -215 1030 -72 217 -96 275
-191 465 -165 329 -375 590 -630 780 -55 41 -105 80 -112 86 -6 6 -37 23 -70
39 -32 15 -80 38 -107 51 -28 13 -57 24 -66 24 -9 0 -20 4 -25 9 -6 4 -44 16
-85 26 -41 10 -88 22 -105 27 -39 13 -355 19 -420 8z m391 -186 c415 -73 793
-396 1067 -914 213 -402 351 -912 402 -1486 27 -316 1 -966 -54 -1329 -14 -95
-40 -246 -50 -295 -47 -227 -65 -310 -73 -330 -4 -8 -9 -26 -12 -40 -16 -77
-28 -127 -36 -145 -4 -11 -16 -47 -25 -80 -9 -33 -20 -69 -24 -80 -5 -11 -16
-45 -26 -75 -26 -84 -65 -193 -76 -212 -5 -10 -9 -23 -9 -29 0 -6 -7 -27 -16
-47 -9 -21 -20 -46 -24 -57 -5 -11 -23 -51 -39 -88 -17 -38 -31 -75 -31 -83 0
-8 -4 -14 -10 -14 -5 0 -10 -6 -10 -13 0 -15 -147 -307 -184 -366 -14 -22 -26
-43 -26 -46 0 -7 -82 -138 -90 -145 -4 -3 -9 -12 -13 -20 -7 -14 -24 -42 -40
-64 -4 -6 -33 -47 -64 -91 -31 -44 -60 -82 -63 -85 -3 -3 -21 -25 -40 -50
-101 -131 -376 -405 -460 -459 -14 -8 -27 -18 -30 -21 -21 -23 -179 -124 -258
-166 -72 -38 -230 -99 -307 -118 -38 -9 -83 -21 -100 -26 -16 -5 -79 -11 -140
-15 -275 -15 -507 51 -749 214 -147 98 -284 236 -406 406 -27 39 -54 75 -60
82 -5 7 -10 15 -10 18 0 4 -11 21 -24 38 -13 18 -47 77 -76 132 -75 142 -80
154 -118 245 -6 14 -18 43 -27 65 -30 72 -33 79 -66 175 -18 52 -38 104 -45
115 -15 23 -73 251 -103 400 -24 123 -56 348 -73 515 -17 167 -17 790 0 980
54 599 189 1173 404 1714 81 205 208 457 368 731 152 261 414 577 629 757 405
339 811 474 1217 402z"/>
<path d="M20430 20040 c0 -5 -15 -10 -34 -10 -18 0 -44 -6 -57 -12 -33 -18
-89 -69 -89 -82 0 -6 -29 -40 -65 -75 -36 -36 -65 -68 -65 -73 0 -11 -208
-218 -219 -218 -4 0 -16 -9 -26 -20 -10 -11 -24 -20 -31 -20 -8 0 -19 -9 -26
-20 -7 -11 -21 -20 -30 -20 -9 0 -21 -6 -25 -13 -8 -14 -73 -47 -92 -47 -6 0
-11 -4 -11 -10 0 -5 -7 -10 -15 -10 -8 0 -15 -4 -15 -9 0 -5 -18 -11 -40 -15
-22 -3 -40 -10 -40 -15 0 -5 -20 -12 -45 -15 -24 -4 -47 -11 -50 -17 -4 -5
-17 -9 -31 -9 -13 0 -24 -4 -24 -9 0 -5 -29 -12 -65 -16 -36 -3 -65 -11 -65
-16 0 -5 -16 -9 -35 -9 -19 0 -35 -4 -35 -9 0 -5 -25 -12 -55 -16 -31 -3 -68
-13 -83 -21 -15 -7 -33 -14 -40 -14 -14 0 -50 -19 -70 -37 -7 -7 -20 -13 -28
-13 -8 0 -14 -4 -14 -10 0 -5 -5 -10 -11 -10 -19 0 -188 -173 -194 -199 -4
-14 -14 -32 -24 -40 -10 -9 -21 -33 -25 -53 -4 -21 -11 -38 -16 -38 -6 0 -10
-18 -10 -39 0 -22 -4 -43 -10 -46 -5 -3 -10 -39 -10 -80 0 -41 5 -77 10 -80 6
-3 10 -22 10 -41 0 -19 4 -34 9 -34 5 0 12 -13 16 -30 4 -16 11 -30 16 -30 5
0 9 -7 9 -15 0 -15 84 -105 99 -105 5 0 14 -7 21 -15 7 -8 23 -15 35 -15 13 0
25 -6 27 -12 10 -28 368 -24 368 4 0 4 9 8 19 8 11 0 46 14 78 30 31 17 63 30
70 30 7 0 13 5 13 10 0 6 7 10 15 10 8 0 15 5 15 10 0 6 9 10 20 10 10 0 23 6
27 13 4 8 15 17 23 20 23 11 52 30 79 55 14 12 30 22 36 22 5 0 26 18 45 40
19 22 40 40 46 40 16 0 244 240 314 330 19 25 38 47 42 48 4 2 8 9 8 16 0 6
15 26 34 44 19 18 38 41 41 52 4 11 11 20 16 20 5 0 9 7 9 15 0 8 11 25 25 37
14 12 25 28 25 35 0 8 6 16 14 19 8 3 17 13 20 22 3 9 14 29 23 43 48 71 58
84 64 89 3 3 10 16 14 30 4 14 18 38 31 53 13 16 24 37 24 47 0 10 3 20 8 22
9 4 62 106 62 120 0 10 24 68 41 101 6 10 13 41 16 68 3 27 10 49 14 49 5 0 9
13 9 29 0 17 5 33 10 36 12 8 13 75 1 75 -5 0 -11 9 -14 21 -3 11 -15 23 -26
26 -12 3 -21 9 -21 14 0 5 -20 9 -45 9 -25 0 -45 -4 -45 -10z"/>
<path d="M13370 25045 c-132 -21 -237 -55 -377 -121 -50 -24 -95 -44 -98 -44
-23 0 -233 -161 -320 -247 -109 -106 -248 -280 -299 -375 -13 -24 -53 -97 -90
-163 -81 -147 -171 -358 -231 -542 -25 -76 -54 -165 -66 -198 -28 -82 -38
-119 -55 -200 -8 -38 -19 -90 -25 -115 -5 -25 -14 -79 -20 -120 -6 -41 -14
-91 -19 -110 -31 -129 -51 -406 -57 -779 -3 -249 -1 -338 11 -425 9 -61 20
-165 26 -231 6 -66 15 -147 20 -180 5 -33 16 -109 25 -170 20 -132 58 -328 87
-445 11 -47 24 -101 29 -120 36 -156 176 -595 218 -685 5 -11 35 -83 67 -160
63 -153 185 -404 246 -503 21 -34 38 -64 38 -67 0 -9 179 -285 191 -295 3 -3
26 -36 51 -75 25 -38 69 -99 99 -135 29 -36 65 -78 79 -95 66 -80 262 -267
350 -335 25 -19 47 -37 50 -41 7 -8 170 -119 175 -119 3 0 28 -15 57 -33 47
-30 147 -80 218 -109 14 -6 32 -14 40 -18 9 -4 31 -11 50 -15 19 -4 41 -11 50
-15 29 -15 86 -30 150 -40 313 -52 585 -20 830 97 65 31 246 137 260 153 3 3
25 21 50 40 77 59 145 125 259 250 22 25 41 48 41 52 0 4 6 13 13 20 29 29 99
129 159 228 67 108 198 369 198 393 0 7 4 17 9 22 10 12 91 226 91 243 0 7 4
20 9 30 6 9 17 44 27 77 9 33 23 79 30 103 8 23 14 52 14 62 0 11 4 28 9 38 5
9 17 55 26 102 9 47 21 101 26 120 8 32 16 81 39 240 4 30 13 107 19 170 6 63
16 158 21 210 13 122 13 689 0 794 -5 45 -15 140 -21 211 -23 268 -92 680
-149 890 -6 22 -17 65 -25 95 -14 57 -23 90 -48 175 -38 128 -58 191 -67 207
-6 10 -10 25 -10 34 0 9 -6 30 -14 47 -8 18 -31 77 -51 132 -39 103 -49 127
-95 230 -15 33 -38 85 -51 115 -55 128 -202 407 -224 425 -7 6 -32 42 -56 80
-94 149 -221 329 -289 409 -138 163 -298 325 -405 411 -28 22 -56 46 -63 53
-7 6 -64 45 -125 86 -235 156 -470 250 -714 285 -93 14 -297 12 -393 -4z m430
-171 c344 -61 721 -294 1031 -638 232 -259 449 -583 551 -826 13 -30 26 -56
31 -58 4 -2 7 -9 7 -15 0 -6 19 -49 41 -96 23 -47 45 -95 50 -106 4 -11 16
-40 27 -65 10 -25 25 -61 32 -80 7 -19 17 -39 22 -44 4 -6 8 -16 8 -24 0 -8 6
-28 14 -45 8 -18 22 -54 31 -82 9 -27 21 -59 26 -70 4 -11 15 -45 24 -75 9
-30 20 -62 24 -70 5 -9 12 -35 16 -58 4 -23 11 -44 16 -48 5 -3 9 -18 9 -34 0
-16 4 -31 9 -34 5 -3 12 -27 16 -52 4 -26 10 -54 15 -63 4 -9 14 -41 20 -71 7
-30 16 -73 21 -95 6 -22 17 -74 25 -115 9 -41 20 -95 25 -120 26 -123 54 -321
68 -475 6 -66 16 -152 21 -190 14 -92 13 -799 0 -890 -5 -38 -15 -117 -20
-175 -6 -58 -14 -132 -20 -165 -25 -162 -40 -244 -48 -280 -6 -22 -15 -67 -22
-100 -6 -33 -16 -69 -20 -80 -5 -11 -16 -51 -25 -90 -9 -38 -21 -77 -25 -86
-5 -9 -12 -33 -15 -53 -4 -20 -11 -39 -16 -42 -5 -3 -9 -13 -9 -23 0 -10 -7
-32 -15 -47 -8 -16 -15 -37 -15 -46 0 -9 -4 -20 -10 -23 -5 -3 -10 -13 -10
-22 0 -9 -12 -41 -26 -72 -83 -175 -139 -286 -146 -289 -4 -2 -8 -8 -8 -13 0
-5 -19 -39 -41 -76 -125 -203 -316 -417 -481 -535 -97 -69 -259 -158 -288
-158 -9 0 -20 -4 -25 -8 -29 -24 -147 -50 -283 -64 -166 -16 -393 14 -519 68
-17 8 -36 14 -42 14 -6 0 -19 4 -29 9 -9 6 -59 30 -109 55 -271 132 -545 366
-782 669 -44 56 -97 120 -118 142 -78 82 -320 496 -394 675 -17 41 -47 107
-65 147 -93 196 -191 493 -253 763 -12 52 -29 112 -37 134 -14 35 -35 124 -54
221 -4 22 -13 65 -19 95 -16 82 -20 108 -31 184 -6 38 -12 78 -15 90 -6 27
-23 187 -36 336 -9 112 -11 146 -24 435 -11 232 20 675 66 935 18 103 73 348
98 440 20 72 92 296 101 315 5 11 23 55 39 97 42 107 148 316 214 420 159 252
371 473 567 589 258 153 536 204 830 153z"/>
<path d="M15500 20970 c0 -5 -7 -10 -16 -10 -8 0 -21 -15 -29 -32 -7 -18 -23
-43 -34 -55 -12 -12 -21 -33 -21 -47 0 -14 -4 -27 -9 -31 -5 -3 -13 -41 -17
-85 -3 -44 -11 -80 -15 -80 -5 0 -9 -13 -9 -29 0 -17 -4 -33 -10 -36 -5 -3
-12 -28 -16 -56 -4 -27 -10 -52 -15 -54 -4 -3 -11 -26 -15 -50 -3 -25 -10 -45
-15 -45 -5 0 -9 -11 -9 -24 0 -14 -4 -27 -9 -31 -6 -3 -13 -26 -17 -50 -3 -25
-9 -45 -13 -45 -9 0 -29 -49 -37 -90 -4 -19 -10 -37 -14 -40 -9 -7 -40 -76
-40 -89 0 -6 -4 -11 -10 -11 -5 0 -10 -5 -10 -11 0 -12 -31 -81 -39 -89 -8 -7
-27 -38 -52 -87 -13 -24 -26 -43 -31 -43 -4 0 -8 -6 -8 -13 0 -8 -11 -24 -25
-37 -14 -13 -25 -27 -25 -32 0 -10 -106 -116 -136 -136 -10 -7 -27 -15 -36
-18 -10 -4 -18 -10 -18 -15 0 -5 -18 -12 -40 -15 -22 -4 -40 -10 -40 -15 0 -5
-11 -9 -25 -9 -14 0 -25 -4 -25 -9 0 -4 -21 -11 -47 -14 -50 -6 -103 -27 -103
-39 0 -5 -5 -8 -11 -8 -19 0 -99 -40 -99 -50 0 -6 -6 -10 -13 -10 -18 0 -187
-170 -187 -187 0 -7 -4 -13 -10 -13 -5 0 -10 -6 -10 -14 0 -8 -6 -21 -12 -28
-23 -24 -48 -75 -48 -97 0 -12 -4 -21 -10 -21 -5 0 -10 -11 -10 -24 0 -14 -4
-27 -9 -30 -12 -8 -12 -224 0 -232 5 -3 9 -16 9 -30 0 -13 4 -24 9 -24 5 0 12
-12 15 -26 8 -29 116 -140 163 -166 17 -10 40 -18 50 -18 10 0 24 -5 30 -11 6
-6 58 -11 129 -11 76 0 120 4 122 11 2 6 13 11 24 11 21 0 81 29 86 43 2 4 12
7 22 7 10 0 32 11 48 25 17 14 34 25 39 25 5 0 26 18 46 40 19 22 40 40 46 40
13 0 101 87 101 100 0 5 23 32 50 58 28 27 50 52 50 56 0 5 12 23 28 41 46 56
62 79 62 91 0 7 7 14 15 18 8 3 20 17 25 31 5 14 14 25 20 25 5 0 10 9 10 20
0 11 5 20 10 20 6 0 10 6 10 14 0 7 6 19 14 25 8 7 17 24 21 38 3 15 14 34 24
42 10 9 22 27 26 41 4 14 11 27 14 30 10 7 41 76 41 89 0 6 3 11 8 11 8 0 42
73 42 90 0 6 4 10 10 10 5 0 12 17 16 38 4 20 10 39 13 42 14 12 31 52 37 90
4 22 10 40 15 40 5 0 9 11 9 24 0 14 4 27 9 31 6 3 13 26 17 50 3 25 10 45 15
45 5 0 9 12 9 26 0 14 5 34 10 44 6 11 13 47 16 82 4 35 11 68 16 74 5 7 11
64 15 128 3 64 10 116 15 116 4 0 8 88 8 195 0 107 -4 195 -9 195 -4 0 -11 53
-15 118 -4 64 -11 119 -17 120 -5 2 -9 9 -9 16 0 29 -46 56 -93 56 -26 0 -47
-4 -47 -10z"/>
<path d="M21583 23571 c-148 -38 -243 -201 -243 -415 0 -93 6 -140 40 -311 23
-118 94 -231 170 -270 119 -61 272 -61 392 1 70 36 189 176 203 239 4 17 11
39 17 51 12 25 5 157 -11 233 -27 120 -104 238 -229 351 -111 100 -240 146
-339 121z m145 -173 c63 -29 181 -150 216 -220 35 -71 56 -152 45 -169 -5 -8
-9 -35 -9 -60 0 -72 -25 -141 -66 -182 -81 -81 -230 -90 -306 -19 -58 53 -102
225 -103 397 0 110 2 125 27 177 44 95 105 118 196 76z"/>
<path d="M11300 23390 c-233 -36 -487 -107 -586 -165 -71 -42 -128 -136 -160
-265 -33 -133 -20 -406 27 -555 58 -188 116 -340 175 -458 104 -212 366 -547
468 -599 32 -16 51 -19 94 -15 46 5 61 12 94 44 21 21 41 48 45 60 3 13 8 23
13 23 7 0 27 66 49 163 13 58 14 179 2 244 -6 26 -17 102 -26 168 -10 66 -21
133 -26 149 -16 50 -10 103 18 168 15 35 31 65 35 66 4 2 8 8 8 14 0 6 17 38
38 72 59 92 131 238 159 321 31 89 38 129 38 215 0 83 -4 102 -29 154 -35 73
-91 135 -154 169 -37 20 -66 26 -137 30 -49 3 -115 2 -145 -3z m203 -190 c19
-13 47 -42 61 -64 46 -70 31 -188 -45 -351 -27 -57 -44 -89 -136 -251 -101
-178 -110 -241 -69 -486 33 -194 41 -308 27 -396 -12 -77 -38 -142 -56 -142
-14 0 -126 124 -201 220 -148 192 -223 337 -310 595 -70 210 -95 386 -76 521
23 159 73 249 155 277 47 17 222 58 342 81 171 33 256 32 308 -4z"/>
<path d="M24455 21244 c-11 -2 -47 -9 -80 -15 -132 -25 -264 -114 -476 -320
-122 -120 -159 -165 -194 -240 -80 -175 -16 -281 230 -380 60 -24 243 -81 333
-104 230 -58 335 -116 487 -269 110 -111 181 -196 251 -296 32 -47 61 -87 64
-90 28 -24 104 -145 152 -240 13 -25 26 -46 31 -48 4 -2 7 -8 7 -13 0 -6 9
-29 19 -52 80 -179 103 -250 125 -387 37 -233 45 -305 45 -431 1 -105 3 -120
24 -151 13 -19 27 -46 31 -61 7 -30 39 -51 64 -42 29 10 93 106 127 190 10 22
21 49 26 60 8 19 13 36 45 155 40 145 57 329 50 534 -3 93 -10 194 -16 225 -5
31 -15 90 -21 131 -6 41 -15 93 -20 115 -39 195 -48 236 -72 325 -51 188 -86
298 -120 370 -14 30 -45 98 -67 150 -120 277 -291 544 -436 681 -106 99 -191
149 -312 180 -74 19 -256 33 -297 23z m260 -180 c75 -19 129 -46 199 -100 148
-116 334 -401 455 -694 129 -312 235 -738 272 -1089 14 -133 6 -454 -14 -571
l-13 -75 -13 85 c-50 328 -75 420 -174 637 -89 197 -158 304 -346 538 -283
353 -449 472 -783 558 -109 29 -312 98 -374 127 -22 11 -51 31 -64 45 l-23 24
28 58 c21 44 60 90 159 188 150 149 248 226 324 255 104 39 240 45 367 14z"/>
<path d="M8465 21044 c-182 -26 -365 -119 -511 -257 -247 -234 -434 -526 -572
-892 -186 -497 -237 -752 -249 -1240 -5 -193 -2 -266 12 -375 23 -185 63 -370
124 -575 11 -38 32 -137 45 -218 30 -176 51 -229 111 -266 23 -14 46 -35 51
-46 12 -27 66 -32 85 -9 11 14 15 81 20 323 3 169 9 315 12 326 4 11 11 56 17
100 14 114 37 270 49 340 6 33 17 96 24 140 7 44 16 87 19 95 3 8 13 51 23 95
9 44 20 87 25 95 4 9 11 31 14 50 4 19 11 44 16 55 4 11 16 47 25 80 9 33 20
69 25 80 21 52 40 112 40 128 0 9 5 17 10 17 6 0 10 7 10 15 0 37 109 279 183
405 109 187 369 475 544 601 81 59 190 119 215 119 8 0 18 4 24 9 9 8 90 28
202 50 66 13 248 14 305 2 23 -5 78 -17 122 -26 81 -17 99 -22 147 -45 70 -33
138 3 138 73 0 31 -7 45 -31 68 -17 16 -41 32 -53 35 -13 3 -60 46 -105 95
-102 111 -274 264 -389 346 -111 80 -266 159 -362 184 -73 19 -295 33 -365 23z
m283 -170 c90 -18 205 -72 325 -152 95 -64 327 -243 327 -253 0 -4 -48 -4
-106 -1 -263 13 -528 -57 -736 -195 -81 -53 -369 -334 -465 -453 -179 -223
-281 -427 -418 -835 -99 -297 -153 -505 -184 -715 -31 -208 -51 -353 -57 -413
-3 -37 -10 -69 -14 -72 -4 -3 -13 14 -19 38 -68 255 -94 384 -111 556 -15 151
-12 288 10 541 28 312 63 475 165 763 151 429 290 672 534 929 216 228 473
318 749 262z"/>
<path d="M9268 19941 c-131 -27 -221 -59 -338 -118 -124 -62 -123 -62 -220
-135 -102 -76 -254 -234 -329 -341 -33 -48 -61 -89 -61 -92 0 -2 -11 -21 -25
-41 -22 -32 -122 -232 -145 -289 -43 -105 -81 -229 -114 -365 -23 -98 -35
-159 -68 -350 -18 -103 -18 -773 0 -885 7 -44 19 -125 28 -180 8 -55 19 -120
24 -145 21 -106 43 -207 50 -230 5 -14 12 -41 15 -60 3 -19 10 -46 15 -60 5
-14 25 -79 46 -145 43 -142 110 -322 162 -435 11 -25 31 -70 43 -100 98 -231
327 -605 551 -899 72 -95 316 -342 417 -424 56 -45 211 -157 261 -189 138 -87
360 -198 399 -198 9 0 21 -4 27 -8 5 -4 36 -16 69 -26 33 -9 74 -21 90 -26 17
-5 58 -14 93 -19 34 -5 66 -13 72 -16 5 -3 89 -6 187 -6 197 -1 306 15 448 64
113 39 303 135 313 159 2 5 9 8 15 8 7 0 23 10 37 23 14 12 36 30 48 39 70 48
215 202 288 306 29 42 57 82 62 88 16 23 32 50 39 64 4 8 9 17 13 20 6 5 111
218 130 265 5 11 16 43 25 70 10 28 21 59 26 70 4 11 15 47 25 80 9 33 20 69
25 80 5 11 13 45 19 75 6 30 15 75 21 100 5 25 14 79 19 120 6 41 15 95 20
120 23 115 33 406 21 616 -6 115 -16 229 -21 254 -5 25 -14 88 -20 140 -21
179 -84 490 -111 542 -5 10 -9 24 -9 32 0 17 -58 205 -71 228 -5 10 -9 27 -9
37 0 11 -4 22 -9 26 -5 3 -13 20 -17 37 -3 18 -10 39 -14 48 -4 8 -16 35 -25
60 -10 25 -28 69 -41 98 -13 29 -24 55 -24 58 0 3 -29 66 -65 140 -36 74 -65
139 -65 144 0 4 -3 10 -7 12 -5 2 -21 28 -37 58 -52 100 -214 354 -258 406
-24 29 -79 98 -123 155 -88 114 -378 411 -465 477 -129 97 -258 190 -300 214
-142 82 -274 142 -420 191 -179 59 -244 70 -455 73 -154 3 -206 0 -277 -15z
m402 -156 c418 -49 807 -266 1190 -661 181 -188 429 -511 430 -560 0 -12 7
-27 15 -34 8 -7 15 -16 15 -21 0 -5 12 -28 27 -52 51 -81 201 -371 243 -472 4
-11 15 -36 24 -57 9 -20 16 -42 16 -50 0 -8 4 -18 9 -23 4 -6 17 -35 27 -65
10 -30 21 -59 25 -65 4 -5 10 -26 14 -45 4 -19 11 -41 16 -50 12 -22 39 -108
39 -125 0 -9 4 -23 9 -33 33 -64 118 -499 143 -727 14 -130 14 -632 0 -760
-18 -159 -69 -428 -92 -480 -5 -11 -12 -33 -16 -50 -4 -16 -8 -32 -9 -35 -3
-9 -17 -45 -25 -65 -4 -11 -14 -36 -21 -55 -53 -148 -154 -331 -262 -475 -49
-66 -217 -225 -293 -278 -76 -53 -180 -107 -264 -137 -19 -6 -44 -16 -55 -20
-132 -53 -421 -62 -635 -20 -57 12 -192 54 -222 71 -10 5 -23 9 -30 9 -19 0
-176 79 -262 132 -43 27 -102 60 -130 73 -117 57 -427 344 -588 545 -294 369
-517 779 -669 1230 -157 467 -229 891 -229 1341 0 483 80 866 255 1224 248
508 642 785 1145 804 19 0 91 -6 160 -14z"/>
<path d="M11188 17281 l-28 -28 0 -352 c0 -227 -4 -351 -10 -351 -5 0 -10 -20
-10 -44 0 -25 -4 -47 -9 -50 -5 -3 -12 -31 -16 -62 -4 -32 -11 -64 -15 -73
-21 -40 -40 -90 -40 -104 0 -9 -4 -18 -9 -22 -5 -3 -12 -19 -16 -35 -4 -17
-10 -30 -13 -30 -7 0 -42 -73 -42 -88 0 -4 -9 -13 -19 -19 -11 -7 -22 -26 -26
-43 -4 -16 -11 -30 -16 -30 -5 0 -11 -11 -15 -24 -3 -14 -12 -27 -20 -30 -8
-3 -19 -16 -24 -28 -15 -34 -33 -62 -47 -71 -7 -4 -13 -14 -13 -21 0 -7 -9
-21 -19 -30 -11 -10 -23 -31 -26 -46 -3 -16 -13 -31 -21 -34 -8 -3 -14 -12
-14 -19 0 -8 -9 -22 -19 -31 -11 -10 -22 -29 -26 -44 -4 -15 -10 -29 -14 -32
-7 -5 -49 -90 -70 -143 -6 -16 -9 -33 -6 -38 4 -5 1 -9 -4 -9 -6 0 -11 -18
-11 -39 0 -22 -4 -43 -10 -46 -6 -4 -10 -63 -10 -146 0 -86 4 -139 10 -139 6
0 10 -9 10 -20 0 -22 31 -93 43 -98 4 -2 7 -9 7 -15 0 -15 83 -97 98 -97 7 0
12 -4 12 -10 0 -5 9 -10 20 -10 11 0 20 -4 20 -10 0 -5 18 -13 40 -16 22 -4
40 -10 40 -15 0 -5 38 -9 85 -9 50 0 85 4 85 10 0 6 15 10 34 10 21 0 46 9 63
23 31 24 60 43 82 54 21 10 71 61 71 73 0 5 14 22 30 37 17 14 30 32 30 40 0
7 4 13 9 13 5 0 24 29 41 65 17 36 36 65 41 65 5 0 9 11 9 24 0 14 4 27 9 31
5 3 12 19 16 35 4 17 10 30 13 30 10 0 32 53 39 94 3 20 10 36 14 36 5 0 9 11
9 24 0 14 5 28 10 31 6 4 10 12 9 18 -2 13 7 41 21 68 4 9 11 41 15 73 4 31
11 59 16 62 5 3 9 24 9 48 0 23 6 48 13 54 9 10 12 110 12 432 0 322 -3 422
-12 431 -7 7 -13 30 -13 51 0 21 -4 38 -9 38 -5 0 -12 23 -16 50 -4 28 -10 50
-15 50 -4 0 -11 20 -14 45 -4 24 -11 47 -17 50 -5 4 -9 19 -9 36 0 16 -4 29
-9 29 -5 0 -12 20 -15 45 -4 24 -11 47 -17 50 -5 4 -9 17 -9 31 0 13 -4 24 -9
24 -5 0 -11 18 -15 40 -3 22 -10 40 -14 40 -4 0 -13 15 -21 33 -8 17 -37 56
-65 84 -47 49 -55 53 -96 52 -35 0 -51 -6 -72 -28z"/>
<path d="M23390 19954 c-187 -32 -296 -63 -445 -124 -407 -169 -812 -510
-1138 -957 -205 -282 -385 -612 -514 -943 -96 -247 -183 -541 -224 -755 -10
-55 -23 -122 -29 -150 -13 -70 -38 -277 -50 -428 -27 -345 3 -727 85 -1052 12
-49 25 -110 29 -135 4 -24 10 -49 14 -55 4 -5 16 -35 26 -65 21 -67 21 -66 89
-210 29 -63 70 -141 90 -173 20 -31 37 -60 37 -63 0 -3 25 -39 55 -80 236
-318 520 -510 870 -586 39 -8 134 -13 270 -13 196 1 282 9 370 35 17 5 57 17
90 26 33 9 65 20 70 24 6 4 24 10 40 14 44 10 265 120 356 176 72 45 200 136
252 179 12 10 45 38 72 61 152 128 326 314 473 505 58 76 107 144 115 163 6
12 14 22 19 22 4 0 8 6 8 14 0 8 4 16 8 18 9 3 104 157 137 220 21 41 63 97
47 63 -32 -67 -52 -115 -52 -125 0 -5 -4 -18 -10 -28 -13 -23 -40 -109 -40
-127 0 -9 -4 -23 -9 -33 -5 -9 -17 -46 -26 -82 -9 -36 -21 -73 -26 -82 -5 -10
-9 -24 -9 -31 0 -14 -54 -186 -70 -222 -5 -11 -16 -42 -25 -70 -10 -27 -23
-63 -30 -80 -7 -16 -25 -66 -40 -110 -55 -161 -205 -441 -284 -529 -25 -29
-59 -68 -76 -87 -31 -35 -149 -138 -199 -174 -91 -65 -136 -110 -136 -137 0
-18 8 -33 23 -42 29 -18 126 -28 163 -17 16 5 56 17 89 27 52 16 130 53 355
170 30 16 57 32 60 35 3 4 15 9 28 13 12 4 22 12 22 17 0 5 6 9 14 9 8 0 16 3
18 8 2 4 46 34 98 66 87 53 172 113 225 157 11 9 65 54 120 100 121 100 555
532 555 553 0 8 3 16 8 18 12 5 72 85 72 96 0 6 4 12 8 14 24 9 158 277 208
413 25 71 25 229 0 313 -11 34 -23 62 -28 62 -4 0 -8 6 -8 14 0 8 -25 42 -56
75 -39 43 -76 70 -127 95 -118 56 -129 59 -265 58 -136 -1 -197 -15 -310 -69
-51 -25 -132 -96 -180 -158 l-22 -30 18 40 c10 22 35 76 56 120 68 144 86 185
86 195 0 6 4 18 10 28 14 26 35 79 65 162 14 41 30 82 35 91 5 9 12 34 16 55
3 22 10 44 14 49 3 6 15 39 24 75 10 36 22 74 26 85 4 11 13 45 20 75 7 30 17
73 22 95 13 56 37 180 48 245 5 30 13 82 19 115 6 33 11 83 12 110 l1 50 9
-50 c28 -162 60 -239 131 -312 96 -99 223 -129 334 -79 114 52 243 220 275
358 27 118 8 355 -32 405 -8 10 -23 35 -34 57 -27 54 -105 129 -162 157 -32
15 -72 24 -120 27 -62 4 -80 0 -130 -23 -104 -47 -203 -183 -238 -326 -12 -50
-13 -36 -14 181 -2 345 -32 593 -106 875 -43 163 -124 378 -180 480 -16 28
-36 64 -46 82 -98 174 -259 365 -414 489 -134 108 -330 203 -510 249 -97 25
-131 28 -290 31 -99 1 -191 1 -205 -2z m325 -174 c183 -21 359 -84 509 -184
143 -95 352 -341 449 -528 19 -37 44 -80 55 -95 36 -51 61 -109 111 -259 91
-270 133 -534 134 -824 0 -378 -43 -757 -122 -1065 -6 -22 -16 -66 -23 -97 -8
-31 -17 -60 -21 -64 -4 -4 -7 -15 -7 -25 0 -18 -26 -110 -41 -144 -5 -11 -16
-42 -24 -70 -9 -27 -20 -59 -24 -70 -5 -11 -23 -58 -40 -105 -45 -117 -38
-103 -147 -325 -54 -110 -102 -201 -106 -203 -5 -2 -8 -8 -8 -13 0 -9 -128
-218 -139 -229 -13 -11 -71 -101 -71 -109 0 -5 -4 -11 -8 -13 -5 -2 -28 -30
-53 -63 -24 -33 -46 -62 -49 -65 -3 -3 -28 -32 -55 -65 -55 -68 -340 -355
-352 -355 -5 0 -24 -15 -43 -33 -85 -79 -253 -188 -409 -268 -54 -27 -101 -49
-105 -49 -5 0 -22 -6 -39 -14 -170 -75 -385 -112 -592 -102 -110 5 -230 25
-280 46 -11 5 -42 16 -70 26 -27 10 -54 21 -60 24 -5 4 -21 11 -34 15 -54 17
-248 154 -320 226 -24 24 -64 69 -90 99 -25 30 -49 57 -53 58 -5 2 -8 10 -8
17 0 7 -3 15 -8 17 -35 15 -198 319 -243 453 -7 22 -16 45 -20 50 -4 6 -10 27
-14 48 -4 20 -11 40 -16 43 -5 3 -9 14 -9 25 0 10 -4 19 -9 19 -19 0 -73 267
-95 466 -56 519 1 1057 170 1604 168 541 527 1183 815 1453 38 36 69 71 69 78
0 30 262 260 411 359 115 77 364 206 449 233 236 76 432 99 635 77z m1873
-2024 c42 -22 79 -66 109 -131 25 -56 27 -69 28 -190 0 -171 -13 -208 -99
-293 -36 -34 -82 -70 -102 -78 -34 -14 -41 -14 -80 1 -56 21 -107 80 -130 153
-26 79 -26 285 0 357 54 153 175 233 274 181z m-272 -1930 c74 -33 138 -95
159 -155 21 -61 19 -166 -5 -237 -31 -91 -122 -269 -187 -369 -83 -125 -145
-198 -313 -364 -247 -245 -488 -442 -630 -515 -41 -21 -88 -51 -105 -66 -34
-31 -112 -76 -120 -69 -2 3 22 42 54 87 112 157 274 504 375 807 21 60 62 195
92 300 108 375 168 491 291 558 120 65 276 74 389 23z m-679 -98 c-3 -8 -6 -5
-6 6 -1 11 2 17 5 13 3 -3 4 -12 1 -19z"/>
<path d="M23970 15941 c0 -5 -13 -12 -29 -16 -16 -3 -39 -17 -51 -31 -13 -13
-28 -24 -33 -24 -6 0 -25 -16 -44 -35 -19 -19 -38 -35 -43 -35 -5 0 -27 -18
-49 -40 -22 -22 -44 -40 -48 -40 -5 0 -20 -11 -33 -25 -13 -14 -30 -25 -37
-25 -8 0 -16 -7 -19 -15 -4 -8 -15 -15 -25 -15 -10 0 -19 -4 -19 -9 0 -10 -56
-41 -73 -41 -9 0 -68 -24 -101 -42 -10 -5 -43 -12 -73 -15 -29 -3 -56 -10 -59
-14 -3 -5 -41 -9 -85 -9 -43 0 -79 -4 -79 -9 0 -4 -64 -11 -142 -14 -89 -3
-144 -9 -146 -16 -2 -6 -14 -11 -26 -11 -12 0 -31 -7 -42 -15 -10 -8 -27 -15
-36 -15 -10 0 -18 -4 -18 -9 0 -5 -8 -11 -17 -15 -31 -10 -56 -29 -115 -89
-32 -33 -58 -65 -58 -73 0 -8 -3 -14 -8 -14 -4 0 -14 -15 -22 -32 -19 -41 -20
-230 -2 -236 7 -2 12 -10 12 -18 0 -8 5 -14 10 -14 6 0 10 -9 10 -21 0 -27
116 -148 149 -156 14 -3 28 -9 31 -12 13 -16 55 -32 95 -38 25 -3 48 -10 51
-14 7 -12 254 -12 254 0 0 5 25 12 55 16 30 3 55 11 55 16 0 5 11 9 25 9 14 0
25 5 25 10 0 6 7 10 16 10 16 0 74 29 84 42 3 3 17 9 32 13 15 4 32 13 39 21
6 8 18 14 25 14 8 0 19 9 26 20 7 11 18 20 25 20 7 0 23 11 37 25 14 14 29 25
34 25 4 0 26 18 47 40 21 22 43 40 48 40 12 0 257 247 257 260 0 6 16 24 35
41 19 17 35 37 35 45 0 8 7 17 15 20 8 4 15 15 15 25 0 10 4 19 10 19 5 0 17
17 26 38 10 20 24 41 31 45 7 4 13 16 13 27 0 10 3 20 8 22 13 6 42 65 42 87
0 12 4 21 10 21 5 0 13 18 16 40 4 22 9 40 13 40 14 0 36 68 35 112 -1 71 -30
98 -105 98 -36 0 -59 -5 -62 -12 -4 -10 -6 -10 -6 0 -1 14 -41 17 -41 3z"/>
<path d="M16290 17800 c-8 -5 -29 -10 -47 -10 -100 0 -359 -70 -548 -147 -253
-103 -609 -299 -844 -466 -299 -211 -487 -419 -719 -794 -45 -73 -82 -135 -82
-138 0 -3 -10 -22 -23 -43 -38 -60 -94 -164 -191 -357 -106 -210 -94 -181
-212 -500 -20 -55 -43 -116 -51 -135 -21 -51 -227 -465 -264 -530 -104 -183
-255 -402 -393 -565 -83 -99 -365 -377 -401 -395 -16 -8 -45 -31 -65 -50 -99
-100 -337 -265 -530 -368 -88 -48 -118 -69 -125 -91 -5 -18 -103 -71 -205
-111 -443 -176 -786 -427 -1036 -757 -136 -181 -376 -592 -434 -743 -7 -19
-19 -48 -25 -65 -45 -110 -86 -265 -110 -415 -9 -58 -20 -133 -25 -166 -12
-75 -12 -482 0 -544 8 -44 29 -169 51 -305 15 -96 72 -323 108 -431 73 -220
165 -410 296 -610 43 -65 81 -121 84 -124 3 -3 19 -23 35 -45 34 -46 129 -166
167 -210 271 -313 509 -542 724 -695 86 -61 134 -86 485 -250 363 -171 567
-238 910 -299 204 -36 328 -43 630 -38 322 7 392 14 690 71 41 8 91 17 110 21
19 4 42 9 50 13 8 3 42 11 75 18 33 7 78 17 100 24 22 6 58 15 80 21 22 5 49
13 60 18 11 4 45 16 75 25 30 10 64 21 75 25 11 5 45 16 75 25 30 10 64 21 75
26 27 11 98 34 170 55 33 10 69 21 80 25 11 4 47 15 80 24 33 10 69 21 80 25
11 5 47 16 80 26 33 9 69 21 80 26 11 4 65 22 120 40 55 17 109 35 120 39 11
4 49 16 85 25 36 9 74 21 85 25 11 5 47 14 80 20 33 7 78 16 100 21 39 9 171
35 230 45 17 3 65 12 109 20 99 18 163 18 262 0 44 -8 93 -17 109 -20 52 -9
188 -36 230 -46 22 -5 69 -16 105 -24 36 -8 90 -21 120 -30 30 -8 66 -18 80
-22 14 -3 34 -9 45 -14 11 -5 45 -16 75 -25 30 -10 62 -21 70 -25 9 -4 31 -11
50 -15 19 -4 41 -11 50 -15 8 -5 42 -16 75 -25 33 -10 69 -21 80 -26 11 -4 47
-15 80 -25 33 -9 69 -20 80 -24 11 -5 67 -22 125 -40 58 -17 112 -35 120 -39
8 -4 76 -27 150 -50 74 -24 144 -47 155 -52 11 -5 38 -13 60 -18 22 -6 58 -15
80 -21 22 -7 67 -17 100 -24 33 -7 67 -15 75 -18 8 -4 31 -9 50 -13 19 -4 69
-13 110 -21 290 -58 406 -69 745 -69 360 0 471 8 710 51 219 39 483 131 755
261 63 30 142 66 175 80 147 61 304 151 363 210 7 7 17 13 21 13 4 0 16 8 27
18 11 9 46 39 79 67 161 134 371 344 530 530 33 39 62 72 65 75 3 3 21 25 40
50 19 25 37 47 40 50 3 3 25 32 50 65 25 33 47 62 51 65 10 9 135 204 168 260
60 106 166 330 177 376 4 16 10 34 14 39 3 6 15 39 24 75 10 36 22 74 27 85 4
11 12 40 18 65 5 25 15 63 21 85 13 49 37 176 50 270 5 39 18 95 27 125 26 80
26 532 0 670 -9 52 -24 136 -33 185 -55 313 -196 627 -465 1032 -222 335 -508
593 -850 763 -46 23 -91 48 -99 56 -9 7 -49 27 -90 44 -222 94 -283 126 -301
157 -9 15 -33 37 -55 48 -90 45 -415 251 -422 268 -2 4 -10 7 -17 7 -7 0 -15
3 -17 8 -1 4 -23 22 -47 41 -24 19 -65 56 -93 83 -27 26 -56 48 -64 48 -20 0
-312 292 -410 410 -91 109 -250 327 -279 383 -11 20 -23 37 -27 37 -5 0 -8 4
-8 9 0 5 -28 58 -62 118 -110 191 -250 481 -302 623 -15 41 -31 82 -35 90 -5
9 -12 30 -15 48 -4 17 -12 34 -17 37 -5 4 -9 14 -9 24 0 16 -17 59 -41 103 -5
10 -9 23 -9 29 0 21 -150 316 -175 345 -14 16 -28 40 -32 54 -7 26 -70 150
-110 212 -12 21 -23 42 -23 48 0 5 -4 10 -10 10 -5 0 -10 5 -10 10 0 9 -101
178 -122 205 -4 6 -33 46 -64 90 -31 44 -60 82 -65 83 -5 2 -9 8 -9 13 0 19
-71 94 -235 249 -320 303 -953 658 -1390 779 -76 21 -237 51 -275 51 -21 0
-42 5 -45 10 -8 13 -485 13 -505 0z m450 -131 c386 -60 731 -203 1215 -503
377 -233 594 -449 831 -823 100 -158 274 -469 274 -490 0 -8 29 -75 65 -148
36 -74 65 -136 65 -140 0 -4 6 -21 14 -38 13 -29 36 -92 82 -222 9 -27 21 -54
26 -59 4 -6 8 -16 8 -24 0 -8 6 -28 14 -45 8 -18 20 -47 27 -66 25 -62 248
-501 259 -511 4 -3 9 -12 12 -21 10 -27 160 -264 169 -267 5 -2 9 -8 9 -13 0
-9 105 -157 119 -169 4 -3 22 -25 41 -50 41 -54 66 -82 186 -214 76 -84 132
-138 280 -271 24 -21 61 -51 104 -85 25 -19 47 -37 50 -40 3 -4 48 -36 100
-73 52 -37 108 -77 124 -89 16 -13 34 -25 40 -27 6 -2 13 -7 16 -11 3 -3 28
-22 55 -41 28 -18 52 -36 55 -39 3 -3 30 -21 60 -40 30 -19 57 -38 58 -42 2
-5 8 -8 13 -8 6 0 33 -15 62 -33 44 -28 207 -110 272 -137 11 -5 60 -27 108
-49 49 -23 94 -41 102 -41 7 0 15 -3 17 -7 2 -5 32 -23 68 -42 156 -81 353
-225 480 -351 57 -56 86 -90 187 -214 25 -30 193 -284 193 -290 0 -4 11 -23
23 -44 28 -44 81 -138 116 -207 14 -27 28 -52 32 -55 3 -3 13 -27 23 -55 11
-27 22 -54 26 -60 4 -5 11 -26 14 -45 4 -19 11 -44 15 -55 5 -11 17 -49 26
-85 9 -36 21 -74 25 -85 9 -22 26 -101 43 -205 15 -85 15 -468 0 -590 -6 -52
-17 -140 -23 -195 -6 -55 -14 -116 -19 -135 -5 -19 -16 -69 -25 -110 -33 -148
-86 -335 -116 -405 -10 -22 -21 -51 -25 -64 -7 -23 -92 -192 -135 -266 -22
-40 -130 -206 -140 -215 -3 -3 -25 -32 -49 -65 -25 -33 -47 -62 -51 -65 -3 -3
-21 -25 -40 -50 -19 -25 -39 -50 -45 -56 -5 -6 -21 -24 -34 -40 -117 -140
-347 -376 -467 -479 -38 -33 -71 -62 -74 -66 -3 -3 -32 -25 -65 -50 -33 -24
-62 -46 -65 -49 -13 -15 -187 -120 -198 -120 -7 0 -12 -4 -12 -10 0 -5 -4 -10
-9 -10 -6 0 -47 -17 -93 -39 -46 -21 -126 -55 -178 -76 -52 -20 -108 -43 -125
-50 -16 -7 -55 -21 -85 -31 -30 -10 -59 -21 -65 -25 -5 -4 -26 -10 -45 -14
-19 -4 -41 -11 -50 -15 -8 -4 -40 -15 -70 -25 -30 -9 -64 -20 -75 -25 -11 -4
-51 -16 -90 -25 -38 -10 -92 -28 -120 -40 -32 -15 -80 -25 -135 -29 -47 -4
-134 -11 -195 -16 -145 -12 -528 -12 -635 0 -308 34 -730 125 -965 209 -32 11
-67 21 -77 21 -10 0 -18 5 -18 10 0 6 -8 10 -17 10 -15 0 -69 17 -128 40 -22
9 -91 31 -145 47 -130 39 -248 76 -265 83 -60 23 -367 120 -383 120 -10 0 -22
4 -27 8 -6 5 -46 17 -90 27 -44 9 -89 21 -100 25 -11 4 -65 15 -120 25 -55 9
-118 21 -140 26 -195 44 -541 44 -740 0 -22 -5 -85 -17 -140 -26 -55 -10 -108
-21 -117 -26 -10 -5 -28 -9 -41 -9 -13 0 -43 -6 -68 -14 -24 -8 -71 -22 -104
-31 -56 -16 -345 -109 -390 -125 -11 -4 -47 -15 -80 -25 -33 -9 -69 -21 -80
-26 -11 -4 -36 -11 -55 -15 -19 -3 -41 -10 -50 -14 -8 -4 -40 -15 -70 -25 -30
-9 -64 -20 -75 -24 -11 -5 -47 -16 -80 -27 -33 -10 -67 -21 -75 -25 -18 -9
-149 -53 -205 -69 -289 -82 -561 -137 -845 -170 -108 -12 -500 -12 -645 1 -60
5 -148 12 -195 16 -59 4 -99 13 -131 30 -26 12 -54 23 -62 23 -9 0 -26 4 -39
9 -13 6 -57 19 -98 31 -82 23 -124 37 -155 51 -11 5 -38 11 -61 13 -68 8 -399
138 -581 229 -255 129 -532 368 -874 757 -441 502 -638 941 -714 1591 -53 457
-38 680 74 1058 100 336 446 886 692 1102 218 190 363 279 687 423 282 126
362 174 717 429 243 176 366 277 520 432 249 249 451 516 625 825 101 180 265
525 314 660 118 328 175 454 338 749 361 651 575 882 1128 1213 442 265 769
390 1169 448 134 19 138 19 331 -11z"/>
<path d="M21560 10473 c-24 -2 -49 -8 -55 -13 -5 -4 -24 -11 -42 -15 -18 -3
-76 -29 -130 -56 -54 -27 -104 -49 -110 -49 -7 0 -13 -4 -13 -10 0 -5 -7 -10
-15 -10 -8 0 -15 -4 -15 -10 0 -5 -9 -10 -20 -10 -11 0 -23 -6 -26 -14 -3 -8
-13 -17 -22 -20 -20 -6 -50 -26 -70 -43 -7 -7 -19 -13 -25 -13 -7 0 -21 -11
-31 -25 -10 -14 -24 -25 -30 -25 -6 0 -49 -38 -96 -85 -47 -47 -89 -85 -94
-85 -6 0 -34 -25 -63 -55 -29 -30 -58 -55 -64 -55 -5 0 -27 -18 -48 -40 -21
-22 -42 -40 -48 -40 -5 0 -20 -11 -33 -25 -13 -14 -27 -25 -32 -25 -5 0 -14
-4 -21 -10 -58 -47 -77 -60 -100 -65 -15 -4 -27 -10 -27 -14 0 -4 -18 -16 -40
-27 -22 -10 -40 -22 -40 -26 0 -3 -13 -9 -30 -13 -16 -4 -32 -11 -35 -16 -4
-5 -17 -9 -31 -9 -13 0 -24 -4 -24 -10 0 -5 -16 -12 -35 -16 -19 -3 -38 -10
-41 -15 -3 -5 -16 -9 -30 -9 -13 0 -24 -4 -24 -9 0 -5 -29 -13 -65 -16 -36 -4
-65 -11 -65 -16 0 -4 -31 -11 -70 -15 -38 -3 -70 -11 -70 -15 0 -5 -28 -9 -63
-9 -35 0 -68 -5 -75 -12 -17 -17 -504 -17 -510 0 -2 7 -21 12 -42 12 -21 0
-41 4 -44 9 -3 5 -35 12 -71 16 -36 3 -67 10 -70 15 -2 4 -30 11 -61 15 -32 4
-67 12 -78 17 -47 25 -57 28 -96 34 -22 4 -40 10 -40 15 0 5 -10 9 -22 9 -13
0 -32 7 -42 15 -11 8 -30 15 -43 15 -13 0 -23 4 -23 8 0 5 -26 17 -57 28 -32
10 -60 22 -63 25 -3 3 -22 9 -42 13 -21 4 -38 10 -38 14 0 8 -43 28 -82 38
-16 3 -28 9 -28 13 0 9 -48 29 -88 37 -17 4 -32 10 -32 15 0 5 -10 9 -23 9
-13 0 -32 7 -43 15 -10 8 -29 15 -41 15 -13 0 -23 4 -23 9 0 5 -18 11 -40 15
-22 3 -40 11 -40 16 0 6 -11 10 -25 10 -14 0 -25 4 -25 9 0 5 -25 12 -55 16
-30 3 -55 11 -55 16 0 5 -11 9 -24 9 -14 0 -27 4 -31 9 -3 5 -36 13 -73 17
-37 3 -70 12 -74 18 -10 14 -617 14 -627 -1 -3 -6 -46 -13 -96 -17 -49 -4 -94
-12 -100 -17 -5 -5 -26 -9 -47 -9 -21 0 -38 -4 -38 -9 0 -5 -27 -12 -60 -16
-33 -4 -63 -11 -66 -16 -3 -5 -16 -9 -30 -9 -13 0 -24 -4 -24 -9 0 -5 -25 -12
-55 -16 -30 -3 -55 -11 -55 -16 0 -5 -11 -9 -25 -9 -14 0 -25 -4 -25 -10 0 -5
-3 -9 -7 -9 -18 4 -93 -14 -93 -22 0 -4 -16 -11 -35 -15 -19 -3 -38 -10 -41
-15 -3 -5 -16 -9 -30 -9 -13 0 -24 -4 -24 -10 0 -5 -18 -13 -40 -16 -22 -4
-40 -10 -40 -15 0 -5 -7 -9 -15 -9 -8 0 -15 -4 -15 -9 0 -5 -18 -11 -40 -15
-22 -3 -40 -11 -40 -16 0 -6 -9 -10 -21 -10 -19 0 -68 -18 -111 -41 -10 -5
-23 -9 -29 -9 -6 0 -26 -7 -45 -15 -19 -8 -49 -22 -68 -30 -19 -8 -41 -15 -49
-15 -9 0 -19 -4 -22 -10 -3 -5 -17 -10 -31 -10 -13 0 -24 -4 -24 -9 0 -5 -18
-12 -40 -16 -22 -4 -40 -10 -40 -15 0 -4 -18 -10 -40 -14 -23 -3 -50 -11 -60
-16 -11 -6 -29 -14 -40 -20 -10 -5 -37 -13 -60 -16 -22 -4 -40 -10 -40 -15 0
-5 -11 -9 -25 -9 -14 0 -25 -4 -25 -9 0 -5 -22 -12 -50 -16 -27 -4 -50 -10
-50 -15 0 -4 -20 -11 -45 -14 -24 -4 -47 -11 -50 -17 -4 -5 -19 -9 -36 -9 -16
0 -29 -4 -29 -9 0 -5 -20 -12 -45 -15 -24 -4 -47 -11 -50 -17 -4 -5 -19 -9
-34 -9 -15 0 -32 -5 -37 -10 -6 -6 -34 -13 -62 -17 -29 -3 -52 -10 -52 -14 0
-5 -11 -9 -25 -9 -14 0 -25 -4 -25 -9 0 -5 -29 -13 -65 -16 -36 -4 -65 -11
-65 -16 0 -4 -32 -11 -70 -15 -39 -4 -73 -11 -76 -15 -3 -5 -23 -9 -45 -9 -21
0 -39 -4 -39 -9 0 -5 -38 -12 -85 -16 -47 -4 -88 -11 -91 -16 -3 -5 -36 -9
-73 -9 -37 0 -72 -5 -77 -10 -15 -15 -697 -15 -702 0 -2 6 -44 10 -103 10 -54
0 -99 4 -99 9 0 5 -61 12 -135 16 -74 4 -138 11 -141 16 -3 5 -25 9 -49 9 -24
0 -46 4 -49 9 -3 4 -38 11 -77 15 -40 3 -78 11 -84 16 -6 5 -52 12 -103 16
-80 6 -92 5 -98 -10 -5 -12 -20 -16 -68 -16 -81 0 -106 -22 -106 -96 0 -46 3
-53 48 -97 26 -26 52 -47 58 -47 5 0 24 -16 43 -35 18 -19 36 -33 40 -31 4 3
15 -6 25 -20 11 -13 23 -24 28 -24 6 0 24 -11 42 -25 45 -37 48 -39 81 -55 17
-8 41 -22 54 -32 13 -10 32 -18 42 -18 11 0 19 -4 19 -10 0 -5 7 -10 15 -10 8
0 15 -4 15 -10 0 -5 6 -10 13 -10 6 0 33 -11 60 -24 26 -14 61 -27 77 -31 17
-4 30 -11 30 -16 0 -5 11 -9 24 -9 14 0 27 -4 31 -9 3 -6 26 -13 50 -17 25 -3
45 -10 45 -14 0 -4 25 -11 55 -15 30 -3 55 -11 55 -16 0 -5 17 -9 38 -9 21 0
42 -4 48 -10 5 -5 51 -13 102 -16 51 -4 92 -11 92 -15 0 -5 36 -9 79 -9 44 0
83 -4 86 -10 8 -14 502 -14 510 0 3 6 52 10 111 10 57 0 104 4 104 9 0 4 57
11 128 15 70 4 129 11 130 17 2 5 30 9 63 9 32 0 59 4 59 9 0 5 38 12 85 16
47 4 88 11 90 15 3 5 34 12 70 15 36 4 68 11 71 16 3 5 23 9 44 9 21 0 41 4
44 9 3 5 33 12 66 16 33 4 63 11 66 16 3 5 20 9 39 9 19 0 36 4 39 9 3 5 33
12 66 16 33 4 63 11 66 16 3 5 18 9 35 9 16 0 29 4 29 9 0 5 34 12 75 16 41 4
75 10 75 15 0 4 31 11 70 14 38 4 72 11 75 17 4 5 24 9 46 9 21 0 39 4 39 9 0
5 38 12 85 16 47 4 88 11 91 16 3 5 24 9 48 9 23 0 46 4 52 10 5 5 69 12 142
16 72 4 132 11 132 15 0 5 137 9 305 9 168 0 305 -4 305 -9 0 -4 44 -11 98
-15 53 -4 99 -11 100 -16 2 -6 21 -10 43 -10 21 0 39 -4 39 -9 0 -5 25 -13 55
-16 30 -4 55 -11 55 -16 0 -5 15 -9 34 -9 19 0 37 -4 41 -9 3 -6 26 -13 50
-17 25 -3 45 -10 45 -14 0 -4 18 -10 40 -14 23 -3 50 -11 60 -16 11 -6 29 -14
40 -20 10 -5 37 -13 60 -16 22 -4 40 -10 40 -15 0 -5 11 -9 24 -9 14 0 27 -4
31 -9 3 -6 26 -13 50 -17 25 -3 45 -9 45 -13 0 -9 49 -28 93 -35 20 -4 37 -11
37 -15 0 -5 20 -12 45 -15 24 -4 47 -11 50 -17 4 -5 17 -9 31 -9 13 0 24 -4
24 -9 0 -6 20 -13 45 -17 25 -3 48 -10 51 -15 3 -5 18 -9 34 -9 16 0 31 -4 35
-9 3 -6 26 -13 50 -17 25 -3 45 -10 45 -14 0 -4 25 -11 55 -15 30 -3 55 -11
55 -16 0 -5 15 -9 34 -9 19 0 36 -5 38 -11 2 -6 32 -13 66 -16 34 -3 62 -10
62 -14 0 -5 13 -9 29 -9 17 0 32 -4 36 -9 3 -6 37 -13 75 -17 39 -3 70 -11 70
-15 0 -5 18 -9 39 -9 22 0 42 -4 45 -9 4 -5 50 -12 104 -16 53 -4 102 -11 107
-15 6 -5 65 -12 133 -16 67 -4 125 -11 128 -15 3 -5 36 -9 73 -9 40 0 72 -5
79 -12 10 -10 108 -13 419 -13 316 0 407 3 410 13 3 8 26 12 68 12 35 0 66 4
69 9 3 5 44 12 91 16 47 4 85 10 85 14 0 5 35 11 77 15 42 3 82 11 87 16 6 6
27 10 48 10 21 0 38 4 38 9 0 5 27 12 60 16 33 4 63 11 66 16 3 5 16 9 30 9
13 0 24 4 24 9 0 5 25 12 55 16 30 3 55 10 55 13 0 8 44 28 83 38 15 3 30 10
33 15 3 5 14 9 26 9 21 0 80 29 86 43 2 4 8 7 13 7 16 0 89 35 89 42 0 5 6 8
14 8 8 0 21 6 28 13 7 6 30 21 51 31 20 11 37 22 37 26 0 4 8 10 18 14 25 8
54 28 79 54 12 12 27 22 33 22 6 0 21 11 34 25 13 14 27 25 33 25 5 0 27 18
48 40 21 22 43 40 48 40 10 0 197 186 197 196 0 4 17 26 38 49 49 56 72 87 72
98 0 5 8 17 18 26 20 19 40 49 48 74 4 9 10 17 14 17 5 0 11 14 15 30 4 17 11
30 16 30 5 0 9 6 9 14 0 17 32 80 43 84 4 2 10 21 13 43 4 21 10 39 15 39 5 0
9 11 9 24 0 14 4 28 10 31 5 3 12 28 16 56 4 27 11 52 15 55 5 3 9 25 9 49 0
24 5 47 10 50 6 4 10 55 10 121 0 69 -4 114 -10 114 -5 0 -10 18 -10 39 0 22
-4 42 -9 46 -6 3 -13 26 -17 50 -3 25 -9 45 -13 45 -3 0 -12 15 -20 33 -8 17
-24 44 -35 58 -12 14 -32 40 -45 57 -13 18 -31 32 -40 32 -9 0 -22 9 -28 19
-7 11 -26 22 -43 26 -16 4 -30 10 -30 14 0 10 -91 41 -122 41 -14 0 -28 5 -30
11 -4 12 -398 22 -488 12z"/>
<path d="M7514 16731 c-80 -27 -135 -75 -182 -159 -77 -137 -83 -481 -13 -692
79 -233 386 -673 685 -980 329 -338 564 -505 831 -589 55 -18 119 -41 143 -52
127 -57 236 17 218 148 -14 106 -82 189 -388 478 -141 134 -276 313 -364 483
-56 109 -78 178 -114 351 -31 151 -139 486 -196 610 -67 143 -163 261 -272
332 -134 88 -236 108 -348 70z m219 -184 c83 -44 182 -154 239 -264 56 -110
171 -456 192 -578 48 -280 117 -426 345 -735 91 -124 118 -152 236 -249 72
-60 159 -139 192 -175 62 -67 118 -159 108 -175 -6 -11 -192 69 -295 126 -175
97 -351 236 -574 453 -351 343 -652 767 -722 1020 -15 52 -19 102 -19 250 0
168 3 190 23 241 51 128 143 157 275 86z"/>
<path d="M9932 8414 c-66 -32 -148 -112 -184 -180 -74 -138 -55 -367 48 -578
65 -132 184 -253 423 -429 192 -142 348 -227 551 -302 41 -15 84 -31 95 -35
11 -4 47 -16 80 -25 33 -10 69 -21 80 -25 47 -18 133 -40 153 -40 11 0 23 -4
26 -9 3 -4 29 -11 58 -15 29 -4 67 -11 83 -16 54 -15 130 -31 200 -40 39 -5
135 -19 215 -31 122 -18 190 -21 420 -21 278 0 282 0 570 47 65 11 175 38 205
50 17 7 52 21 80 30 64 21 217 86 230 97 5 4 18 8 30 8 11 0 33 10 48 23 39
31 42 87 5 123 l-25 26 -214 -12 c-280 -16 -525 2 -709 50 -19 5 -64 16 -100
25 -315 81 -705 245 -935 393 -141 92 -537 388 -575 431 -22 25 -150 127 -275
218 -82 60 -181 134 -220 163 -103 78 -155 100 -240 100 -54 -1 -82 -6 -123
-26z m223 -176 c102 -63 397 -281 518 -383 156 -130 417 -327 574 -432 403
-269 1126 -518 1521 -524 69 -1 73 -2 37 -10 -218 -47 -584 -74 -792 -59 -552
39 -1055 160 -1408 337 -194 98 -489 327 -600 466 -159 199 -192 455 -74 577
76 79 132 86 224 28z"/>
</g>
</svg>
